<?xml version="1.0" encoding="UTF-8" standalone="no" ?>
<!DOCTYPE svg PUBLIC "-//W3C//DTD SVG 1.1//EN" "http://www.w3.org/Graphics/SVG/1.1/DTD/svg11.dtd">
<svg xmlns="http://www.w3.org/2000/svg" xmlns:xlink="http://www.w3.org/1999/xlink" version="1.1" width="1080" height="1080" viewBox="0 0 1080 1080" xml:space="preserve">
<desc>Created with Fabric.js 5.2.4</desc>
<defs>
</defs>
<g transform="matrix(1 0 0 1 540 540)" id="5c7e4291-26d0-45b2-b0c3-71957b65c279"  >
<rect style="stroke: none; stroke-width: 1; stroke-dasharray: none; stroke-linecap: butt; stroke-dashoffset: 0; stroke-linejoin: miter; stroke-miterlimit: 4; fill: rgb(255,255,255); fill-rule: nonzero; opacity: 1; visibility: hidden;" vector-effect="non-scaling-stroke"  x="-540" y="-540" rx="0" ry="0" width="1080" height="1080" />
</g>
<g transform="matrix(1 0 0 1 540 540)" id="a5ed70f0-321f-457a-8da1-0718b29c675e"  >
</g>
<g transform="matrix(1 0 0 1 540 540)" clip-path="url(#CLIPPATH_3)"  >
<clipPath id="CLIPPATH_3" >
	<rect transform="matrix(1 0 0 1 0 0)" id="clip0" x="-322" y="-15.55555" rx="0" ry="0" width="644" height="31.1111" />
</clipPath>
<path style="stroke: none; stroke-width: 1; stroke-dasharray: none; stroke-linecap: butt; stroke-dashoffset: 0; stroke-linejoin: miter; stroke-miterlimit: 4; fill: rgb(37,51,77); fill-rule: nonzero; opacity: 1;" vector-effect="non-scaling-stroke"  transform=" translate(-322, -15.56)" d="M 0 12.4445 C 0 8.08848 0 5.9105 0.847727 4.24674 C 1.59341 2.78326 2.78326 1.59341 4.24674 0.847727 C 5.9105 0 8.08848 0 12.4444 0 L 631.555 0 C 635.911 0 638.089 0 639.753 0.847727 C 641.217 1.59341 642.407 2.78326 643.152 4.24674 C 644 5.9105 644 8.08848 644 12.4444 L 644 31.1111 L 0 31.1111 L 0 12.4445 Z" stroke-linecap="round" />
</g>
<g transform="matrix(1 0 0 1 784.22 538.83)" clip-path="url(#CLIPPATH_4)"  >
<clipPath id="CLIPPATH_4" >
	<rect transform="matrix(1 0 0 1 28 0.39)" id="clip1" clip-path="url(#undefined)" x="-37.33335" y="-9.33335" rx="0" ry="0" width="74.6667" height="18.6667" />
</clipPath>
<path style="stroke: none; stroke-width: 1; stroke-dasharray: none; stroke-linecap: butt; stroke-dashoffset: 0; stroke-linejoin: miter; stroke-miterlimit: 4; fill: rgb(183,183,183); fill-rule: nonzero; opacity: 1;" vector-effect="non-scaling-stroke"  transform=" translate(-566.22, -14.39)" d="M 566.229 16.6239 C 566.557 16.6239 566.828 16.353 566.828 16.0305 L 566.828 9.54144 L 566.783 8.58679 L 567.176 9.05767 L 568.079 10.0188 C 568.182 10.1349 568.33 10.1929 568.478 10.1929 C 568.775 10.1929 569.02 9.98007 569.02 9.6769 C 569.02 9.51564 568.955 9.39953 568.846 9.28988 L 566.686 7.20641 C 566.532 7.0516 566.383 7 566.229 7 C 566.067 7 565.926 7.0516 565.771 7.20641 L 563.605 9.28988 C 563.496 9.39953 563.431 9.51564 563.431 9.6769 C 563.431 9.98007 563.67 10.1929 563.966 10.1929 C 564.114 10.1929 564.269 10.1349 564.372 10.0188 L 565.275 9.05767 L 565.674 8.58034 L 565.623 9.54144 L 565.623 16.0305 C 565.623 16.353 565.893 16.6239 566.229 16.6239 Z M 562.509 21.7778 L 569.935 21.7778 C 571.334 21.7778 572.056 21.0553 572.056 19.675 L 572.056 13.3343 C 572.056 11.9539 571.334 11.2314 569.935 11.2314 L 568.195 11.2314 L 568.195 12.5151 L 569.851 12.5151 C 570.438 12.5151 570.773 12.8247 570.773 13.4439 L 570.773 19.5589 C 570.773 20.1781 570.438 20.4877 569.851 20.4877 L 562.593 20.4877 C 562 20.4877 561.672 20.1781 561.672 19.5589 L 561.672 13.4439 C 561.672 12.8247 562 12.5151 562.593 12.5151 L 564.269 12.5151 L 564.269 11.2314 L 562.509 11.2314 C 561.117 11.2314 560.389 11.9474 560.389 13.3343 L 560.389 19.675 C 560.389 21.0553 561.117 21.7778 562.509 21.7778 Z" stroke-linecap="round" />
</g>
<g transform="matrix(1 0 0 1 811.44 539.22)" clip-path="url(#CLIPPATH_5)"  >
<clipPath id="CLIPPATH_5" >
	<rect transform="matrix(1 0 0 1 0.78 0)" id="clip1" clip-path="url(#undefined)" x="-37.33335" y="-9.33335" rx="0" ry="0" width="74.6667" height="18.6667" />
</clipPath>
<path style="stroke: none; stroke-width: 1; stroke-dasharray: none; stroke-linecap: butt; stroke-dashoffset: 0; stroke-linejoin: miter; stroke-miterlimit: 4; fill: rgb(183,183,183); fill-rule: nonzero; opacity: 1;" vector-effect="non-scaling-stroke"  transform=" translate(-593.44, -14.78)" d="M 593.444 20.2223 C 593.854 20.2223 594.186 19.8896 594.186 19.5121 L 594.186 15.5072 L 598.154 15.5072 C 598.551 15.5072 598.889 15.1809 598.889 14.7778 C 598.889 14.3812 598.551 14.0485 598.154 14.0485 L 594.186 14.0485 L 594.186 10.0435 C 594.186 9.65966 593.854 9.33337 593.444 9.33337 C 593.041 9.33337 592.703 9.65966 592.703 10.0435 L 592.703 14.0485 L 588.735 14.0485 C 588.351 14.0485 588 14.3812 588 14.7778 C 588 15.1809 588.351 15.5072 588.735 15.5072 L 592.703 15.5072 L 592.703 19.5121 C 592.703 19.8896 593.041 20.2223 593.444 20.2223 Z" stroke-linecap="round" />
</g>
<g transform="matrix(1 0 0 1 840.22 539.29)" clip-path="url(#CLIPPATH_6)"  >
<clipPath id="CLIPPATH_6" >
	<rect transform="matrix(1 0 0 1 -28 -0.06)" id="clip1" clip-path="url(#undefined)" x="-37.33335" y="-9.33335" rx="0" ry="0" width="74.6667" height="18.6667" />
</clipPath>
<path style="stroke: none; stroke-width: 1; stroke-dasharray: none; stroke-linecap: butt; stroke-dashoffset: 0; stroke-linejoin: miter; stroke-miterlimit: 4; fill: rgb(183,183,183); fill-rule: nonzero; opacity: 1;" vector-effect="non-scaling-stroke"  transform=" translate(-622.22, -14.84)" d="M 617.344 18.6938 L 618.44 18.6938 L 618.44 19.6675 C 618.44 21.0475 619.169 21.7698 620.562 21.7698 L 627.101 21.7698 C 628.493 21.7698 629.222 21.0475 629.222 19.6675 L 629.222 13.0834 C 629.222 11.7034 628.493 10.9812 627.101 10.9812 L 626.004 10.9812 L 626.004 10.0139 C 626.004 8.63387 625.276 7.91162 623.883 7.91162 L 617.344 7.91162 C 615.944 7.91162 615.222 8.63387 615.222 10.0139 L 615.222 16.5915 C 615.222 17.978 615.944 18.6938 617.344 18.6938 Z M 617.428 17.4105 C 616.834 17.4105 616.505 17.1009 616.505 16.4754 L 616.505 10.13 C 616.505 9.50444 616.834 9.20135 617.428 9.20135 L 623.799 9.20135 C 624.386 9.20135 624.721 9.50444 624.721 10.13 L 624.721 10.9812 L 620.562 10.9812 C 619.169 10.9812 618.44 11.7034 618.44 13.0834 L 618.44 17.4105 L 617.428 17.4105 Z M 620.645 20.48 C 620.052 20.48 619.73 20.1705 619.73 19.5514 L 619.73 13.1995 C 619.73 12.5804 620.052 12.2709 620.645 12.2709 L 627.017 12.2709 C 627.61 12.2709 627.939 12.5804 627.939 13.1995 L 627.939 19.5514 C 627.939 20.1705 627.61 20.48 627.017 20.48 L 620.645 20.48 Z" stroke-linecap="round" />
</g>
<g transform="matrix(1 0 0 1 301.87 539.81)" clip-path="url(#CLIPPATH_7)"  >
<clipPath id="CLIPPATH_7" >
	<rect transform="matrix(1 0 0 1 28.9 -0.59)" id="clip2" clip-path="url(#undefined)" x="-38.1111" y="-9.33335" rx="0" ry="0" width="76.2222" height="18.6667" />
</clipPath>
<path style="stroke: none; stroke-width: 1; stroke-dasharray: none; stroke-linecap: butt; stroke-dashoffset: 0; stroke-linejoin: miter; stroke-miterlimit: 4; fill: rgb(183,183,183); fill-rule: nonzero; opacity: 1;" vector-effect="non-scaling-stroke"  transform=" translate(-83.87, -15.37)" d="M 78.3463 21.3999 L 89.3928 21.3999 C 90.7937 21.3999 91.5233 20.6769 91.5233 19.2952 L 91.5233 11.4381 C 91.5233 10.0565 90.7937 9.33337 89.3928 9.33337 L 78.3463 9.33337 C 76.9517 9.33337 76.2222 10.05 76.2222 11.4381 L 76.2222 19.2952 C 76.2222 20.6769 76.9517 21.3999 78.3463 21.3999 Z M 78.4302 20.1152 C 77.8362 20.1152 77.507 19.8053 77.507 19.179 L 77.507 11.5543 C 77.507 10.928 77.8362 10.6182 78.4302 10.6182 L 81.3742 10.6182 L 81.3742 20.1152 L 78.4302 20.1152 Z M 89.3088 10.6182 C 89.9028 10.6182 90.2321 10.928 90.2321 11.5543 L 90.2321 19.179 C 90.2321 19.8053 89.9028 20.1152 89.3088 20.1152 L 82.5944 20.1152 L 82.5944 10.6182 L 89.3088 10.6182 Z M 80.1088 12.9811 C 80.3412 12.9811 80.5349 12.781 80.5349 12.5615 C 80.5349 12.3419 80.3412 12.1483 80.1088 12.1483 L 78.7853 12.1483 C 78.5529 12.1483 78.3592 12.3419 78.3592 12.5615 C 78.3592 12.781 78.5529 12.9811 78.7853 12.9811 L 80.1088 12.9811 Z M 80.1088 14.7178 C 80.3412 14.7178 80.5349 14.5241 80.5349 14.2982 C 80.5349 14.0787 80.3412 13.885 80.1088 13.885 L 78.7853 13.885 C 78.5529 13.885 78.3592 14.0787 78.3592 14.2982 C 78.3592 14.5241 78.5529 14.7178 78.7853 14.7178 L 80.1088 14.7178 Z M 80.1088 16.4481 C 80.3412 16.4481 80.5349 16.2608 80.5349 16.0349 C 80.5349 15.8154 80.3412 15.6281 80.1088 15.6281 L 78.7853 15.6281 C 78.5529 15.6281 78.3592 15.8154 78.3592 16.0349 C 78.3592 16.2608 78.5529 16.4481 78.7853 16.4481 L 80.1088 16.4481 Z" stroke-linecap="round" />
</g>
<g transform="matrix(1 0 0 1 332.32 539.56)" clip-path="url(#CLIPPATH_8)"  >
<clipPath id="CLIPPATH_8" >
	<rect transform="matrix(1 0 0 1 -1.55 -0.33)" id="clip2" clip-path="url(#undefined)" x="-38.1111" y="-9.33335" rx="0" ry="0" width="76.2222" height="18.6667" />
</clipPath>
<path style="stroke: none; stroke-width: 1; stroke-dasharray: none; stroke-linecap: butt; stroke-dashoffset: 0; stroke-linejoin: miter; stroke-miterlimit: 4; fill: rgb(183,183,183); fill-rule: nonzero; opacity: 1;" vector-effect="non-scaling-stroke"  transform=" translate(-114.32, -15.11)" d="M 116.199 20.2952 L 111.471 15.6711 C 111.307 15.507 111.222 15.3247 111.222 15.112 C 111.222 14.8994 111.307 14.7049 111.477 14.5469 L 116.205 9.92889 C 116.339 9.79521 116.509 9.72229 116.703 9.72229 C 117.11 9.72229 117.426 10.0383 117.426 10.4393 C 117.426 10.6337 117.347 10.8221 117.207 10.9619 L 112.954 15.106 L 117.207 19.2622 C 117.347 19.402 117.426 19.5843 117.426 19.7848 C 117.426 20.1858 117.11 20.5018 116.703 20.5018 C 116.509 20.5018 116.339 20.4289 116.199 20.2952 Z" stroke-linecap="round" />
</g>
<g transform="matrix(1 0 0 1 359.93 539.56)" clip-path="url(#CLIPPATH_9)"  >
<clipPath id="CLIPPATH_9" >
	<rect transform="matrix(1 0 0 1 -29.16 -0.33)" id="clip2" clip-path="url(#undefined)" x="-38.1111" y="-9.33335" rx="0" ry="0" width="76.2222" height="18.6667" />
</clipPath>
<path style="stroke: none; stroke-width: 1; stroke-dasharray: none; stroke-linecap: butt; stroke-dashoffset: 0; stroke-linejoin: miter; stroke-miterlimit: 4; fill: rgb(90,90,90); fill-rule: nonzero; opacity: 1;" vector-effect="non-scaling-stroke"  transform=" translate(-141.94, -15.11)" d="M 139.556 20.5018 C 139.757 20.5018 139.921 20.4289 140.061 20.2952 L 144.788 15.6772 C 144.952 15.507 145.037 15.3308 145.037 15.112 C 145.037 14.8994 144.958 14.711 144.788 14.553 L 140.061 9.92889 C 139.921 9.79521 139.757 9.72229 139.556 9.72229 C 139.149 9.72229 138.833 10.0383 138.833 10.4393 C 138.833 10.6337 138.918 10.8221 139.052 10.9619 L 143.312 15.1181 L 139.052 19.2622 C 138.912 19.4081 138.833 19.5843 138.833 19.7848 C 138.833 20.1858 139.149 20.5018 139.556 20.5018 Z" stroke-linecap="round" />
</g>
<g transform="matrix(1 0 0 1 238.22 540)" clip-path="url(#CLIPPATH_10)"  >
<clipPath id="CLIPPATH_10" >
	<rect transform="matrix(1 0 0 1 15.56 0)" id="clip3" clip-path="url(#undefined)" x="-20.2222" y="-4.666665" rx="0" ry="0" width="40.4444" height="9.33333" />
</clipPath>
<circle style="stroke: none; stroke-width: 1; stroke-dasharray: none; stroke-linecap: butt; stroke-dashoffset: 0; stroke-linejoin: miter; stroke-miterlimit: 4; fill: rgb(237,106,94); fill-rule: nonzero; opacity: 1;" vector-effect="non-scaling-stroke"  cx="0" cy="0" r="4.66667" />
</g>
<g transform="matrix(1 0 0 1 238.22 540)" clip-path="url(#CLIPPATH_11)"  >
<clipPath id="CLIPPATH_11" >
	<rect transform="matrix(1 0 0 1 15.56 0)" id="clip3" clip-path="url(#undefined)" x="-20.2222" y="-4.666665" rx="0" ry="0" width="40.4444" height="9.33333" />
</clipPath>
<circle style="stroke: rgb(0,0,0); stroke-opacity: 0.1; stroke-width: 0.777778; stroke-dasharray: none; stroke-linecap: butt; stroke-dashoffset: 0; stroke-linejoin: miter; stroke-miterlimit: 4; fill: none; fill-rule: nonzero; opacity: 1;" vector-effect="non-scaling-stroke"  cx="0" cy="0" r="4.27778" />
</g>
<g transform="matrix(1 0 0 1 253.78 540)" clip-path="url(#CLIPPATH_12)"  >
<clipPath id="CLIPPATH_12" >
	<rect transform="matrix(1 0 0 1 0 0)" id="clip3" clip-path="url(#undefined)" x="-20.2222" y="-4.666665" rx="0" ry="0" width="40.4444" height="9.33333" />
</clipPath>
<circle style="stroke: none; stroke-width: 1; stroke-dasharray: none; stroke-linecap: butt; stroke-dashoffset: 0; stroke-linejoin: miter; stroke-miterlimit: 4; fill: rgb(244,189,80); fill-rule: nonzero; opacity: 1;" vector-effect="non-scaling-stroke"  cx="0" cy="0" r="4.66667" />
</g>
<g transform="matrix(1 0 0 1 253.78 540)" clip-path="url(#CLIPPATH_13)"  >
<clipPath id="CLIPPATH_13" >
	<rect transform="matrix(1 0 0 1 0 0)" id="clip3" clip-path="url(#undefined)" x="-20.2222" y="-4.666665" rx="0" ry="0" width="40.4444" height="9.33333" />
</clipPath>
<circle style="stroke: rgb(0,0,0); stroke-opacity: 0.1; stroke-width: 0.777778; stroke-dasharray: none; stroke-linecap: butt; stroke-dashoffset: 0; stroke-linejoin: miter; stroke-miterlimit: 4; fill: none; fill-rule: nonzero; opacity: 1;" vector-effect="non-scaling-stroke"  cx="0" cy="0" r="4.27778" />
</g>
<g transform="matrix(1 0 0 1 269.33 540)" clip-path="url(#CLIPPATH_14)"  >
<clipPath id="CLIPPATH_14" >
	<rect transform="matrix(1 0 0 1 -15.56 0)" id="clip3" clip-path="url(#undefined)" x="-20.2222" y="-4.666665" rx="0" ry="0" width="40.4444" height="9.33333" />
</clipPath>
<circle style="stroke: none; stroke-width: 1; stroke-dasharray: none; stroke-linecap: butt; stroke-dashoffset: 0; stroke-linejoin: miter; stroke-miterlimit: 4; fill: rgb(97,196,84); fill-rule: nonzero; opacity: 1;" vector-effect="non-scaling-stroke"  cx="0" cy="0" r="4.66667" />
</g>
<g transform="matrix(1 0 0 1 269.33 540)" clip-path="url(#CLIPPATH_15)"  >
<clipPath id="CLIPPATH_15" >
	<rect transform="matrix(1 0 0 1 -15.56 0)" id="clip3" clip-path="url(#undefined)" x="-20.2222" y="-4.666665" rx="0" ry="0" width="40.4444" height="9.33333" />
</clipPath>
<circle style="stroke: rgb(0,0,0); stroke-opacity: 0.1; stroke-width: 0.777778; stroke-dasharray: none; stroke-linecap: butt; stroke-dashoffset: 0; stroke-linejoin: miter; stroke-miterlimit: 4; fill: none; fill-rule: nonzero; opacity: 1;" vector-effect="non-scaling-stroke"  cx="0" cy="0" r="4.27778" />
</g>
<g transform="matrix(1 0 0 1 438.89 539.61)" clip-path="url(#CLIPPATH_16)"  >
<clipPath id="CLIPPATH_16" >
	<rect transform="matrix(1 0 0 1 101.11 0.39)" id="clip0" x="-322" y="-15.55555" rx="0" ry="0" width="644" height="31.1111" />
</clipPath>
<path style="stroke: none; stroke-width: 1; stroke-dasharray: none; stroke-linecap: butt; stroke-dashoffset: 0; stroke-linejoin: miter; stroke-miterlimit: 4; fill: rgb(183,183,183); fill-rule: nonzero; opacity: 1;" vector-effect="non-scaling-stroke"  transform=" translate(-220.89, -15.17)" d="M 220.889 21.7778 C 221.005 21.7778 221.178 21.7388 221.339 21.6478 C 225.046 19.6141 226.333 18.672 226.333 16.3069 L 226.333 11.4014 C 226.333 10.6217 226.031 10.3423 225.387 10.0629 C 224.673 9.75756 222.272 8.9129 221.571 8.6725 C 221.359 8.60102 221.108 8.55554 220.889 8.55554 C 220.67 8.55554 220.419 8.61402 220.207 8.6725 C 219.505 8.87391 217.105 9.76406 216.39 10.0629 C 215.747 10.3358 215.444 10.6217 215.444 11.4014 L 215.444 16.3069 C 215.444 18.672 216.738 19.6011 220.432 21.6478 C 220.599 21.7388 220.773 21.7778 220.889 21.7778 Z M 221.236 9.86802 C 222.079 10.2059 223.914 10.8621 224.879 11.2065 C 225.059 11.278 225.104 11.3754 225.104 11.6093 L 225.104 16.0665 C 225.104 17.9703 224.158 18.4836 221.256 20.2509 C 221.075 20.3613 220.985 20.4003 220.895 20.4003 L 220.895 9.79655 C 220.985 9.79655 221.082 9.81604 221.236 9.86802 Z" stroke-linecap="round" />
</g>
<g transform="matrix(1 0 0 1 540 540)" clip-path="url(#CLIPPATH_17)"  >
<clipPath id="CLIPPATH_17" >
	<rect transform="matrix(1 0 0 1 0 0)" id="clip4" clip-path="url(#undefined)" x="-87.889" y="-10.8889" rx="0" ry="0" width="175.778" height="21.7778" />
</clipPath>
<path style="stroke: none; stroke-width: 1; stroke-dasharray: none; stroke-linecap: butt; stroke-dashoffset: 0; stroke-linejoin: miter; stroke-miterlimit: 4; fill: rgb(60,81,117); fill-rule: nonzero; opacity: 1;" vector-effect="non-scaling-stroke"  transform=" translate(-322, -15.56)" d="M 234.111 12.1333 C 234.111 9.51971 234.111 8.21292 234.62 7.21467 C 235.067 6.33658 235.781 5.62267 236.659 5.17526 C 237.657 4.66663 238.964 4.66663 241.578 4.66663 L 402.422 4.66663 C 405.036 4.66663 406.343 4.66663 407.341 5.17526 C 408.219 5.62267 408.933 6.33658 409.38 7.21467 C 409.889 8.21292 409.889 9.51971 409.889 12.1333 L 409.889 18.9777 C 409.889 21.5913 409.889 22.8981 409.38 23.8964 C 408.933 24.7744 408.219 25.4884 407.341 25.9358 C 406.343 26.4444 405.036 26.4444 402.422 26.4444 L 241.578 26.4444 C 238.964 26.4444 237.657 26.4444 236.659 25.9358 C 235.781 25.4884 235.067 24.7744 234.62 23.8964 C 234.111 22.8981 234.111 21.5913 234.111 18.9777 L 234.111 12.1333 Z" stroke-linecap="round" />
</g>
<g transform="matrix(1 0 0 1 618.56 540.04)" clip-path="url(#CLIPPATH_18)"  >
<clipPath id="CLIPPATH_18" >
	<rect transform="matrix(1 0 0 1 0 -0.04)" id="clip5" clip-path="url(#undefined)" x="-5.05555" y="-5.44445" rx="0" ry="0" width="10.1111" height="10.8889" />
</clipPath>
<path style="stroke: none; stroke-width: 1; stroke-dasharray: none; stroke-linecap: butt; stroke-dashoffset: 0; stroke-linejoin: miter; stroke-miterlimit: 4; fill: rgb(227,227,227); fill-rule: nonzero; opacity: 1;" vector-effect="non-scaling-stroke"  transform=" translate(-400.56, -15.59)" d="M 400.423 15.3474 C 400.556 15.3474 400.66 15.3064 400.742 15.2198 L 402.611 13.3376 C 402.711 13.2374 402.757 13.128 402.757 13.0004 C 402.757 12.8774 402.707 12.7589 402.611 12.6677 L 400.742 10.7673 C 400.66 10.6762 400.556 10.6306 400.423 10.6306 C 400.177 10.6306 399.981 10.8357 399.981 11.0863 C 399.981 11.2094 400.027 11.3097 400.104 11.3962 L 401.194 12.4626 C 400.979 12.4307 400.761 12.4125 400.542 12.4125 C 398.286 12.4125 396.481 14.2172 396.481 16.4776 C 396.481 18.738 398.3 20.5564 400.556 20.5564 C 402.816 20.5564 404.63 18.738 404.63 16.4776 C 404.63 16.2042 404.438 16.0082 404.165 16.0082 C 403.901 16.0082 403.723 16.2042 403.723 16.4776 C 403.723 18.2367 402.315 19.6495 400.556 19.6495 C 398.801 19.6495 397.388 18.2367 397.388 16.4776 C 397.388 14.7048 398.787 13.3012 400.542 13.3012 C 400.838 13.3012 401.112 13.324 401.353 13.365 L 400.109 14.5955 C 400.027 14.6775 399.981 14.7778 399.981 14.9008 C 399.981 15.1514 400.177 15.3474 400.423 15.3474 Z" stroke-linecap="round" />
</g>
<g transform="matrix(1 0 0 1 466 540.44)" clip-path="url(#CLIPPATH_19)"  >
<clipPath id="CLIPPATH_19" >
	<rect transform="matrix(1 0 0 1 74 -0.44)" id="clip4" clip-path="url(#undefined)" x="-87.889" y="-10.8889" rx="0" ry="0" width="175.778" height="21.7778" />
</clipPath>
<path style="stroke: none; stroke-width: 1; stroke-dasharray: none; stroke-linecap: butt; stroke-dashoffset: 0; stroke-linejoin: miter; stroke-miterlimit: 4; fill: rgb(255,255,255); fill-rule: nonzero; opacity: 1;" vector-effect="non-scaling-stroke"  transform=" translate(-248, -16)" d="M 248 10.1666 C 246.392 10.1666 245.083 11.475 245.083 13.0833 L 245.083 14.8333 L 244.5 14.8333 C 243.857 14.8333 243.333 15.3565 243.333 16 L 243.333 20.6666 C 243.333 21.31 243.857 21.8333 244.5 21.8333 L 251.5 21.8333 C 252.143 21.8333 252.667 21.31 252.667 20.6666 L 252.667 16 C 252.667 15.3565 252.143 14.8333 251.5 14.8333 L 250.917 14.8333 L 250.917 13.0833 C 250.917 11.475 249.608 10.1666 248 10.1666 Z M 251.5 16 L 251.501 20.6666 L 244.5 20.6666 L 244.5 16 L 251.5 16 Z M 246.25 14.8333 L 246.25 13.0833 C 246.25 12.1185 247.035 11.3333 248 11.3333 C 248.965 11.3333 249.75 12.1185 249.75 13.0833 L 249.75 14.8333 L 246.25 14.8333 Z" stroke-linecap="round" />
</g>
<g transform="matrix(1 0 0 1 540 540)" style="" id="c4a90f49-f514-4994-abb2-12a229989334"  >
		<text xml:space="preserve" font-family="Lato" font-size="12" font-style="normal" font-weight="400" style="stroke: none; stroke-width: 1; stroke-dasharray: none; stroke-linecap: butt; stroke-dashoffset: 0; stroke-linejoin: miter; stroke-miterlimit: 4; fill: rgb(255,255,255); fill-rule: nonzero; opacity: 1; white-space: pre;" ><tspan x="-57.87" y="3.77" >junaidsadiq.vercel.app</tspan></text>
</g>
</svg>